<svg xmlns="http://www.w3.org/2000/svg" xmlns:xlink="http://www.w3.org/1999/xlink" viewBox="0 0 113.3858 56.6924"><defs><clipPath id="clippath"><rect x="13.0917" y="17.9109" width="87.2023" height="18.0033" fill="none"></rect></clipPath></defs><g><g id="Capa_1"><g><path d="M11.3687,12.4941s-4.2821,0-4.2821,4.9024v27.4582s0,4.9025,4.2821,4.9025l90.6484-5.5589s4.2821,0,4.2821-4.9024V11.8377s0-4.9025-4.2821-4.9025L11.3687,12.4941Z" fill="#fff"></path><g clip-path="url(#clippath)"><path d="M28.9296,21.4982c-.3494-.0146-.664.1114-.8868.3171-.1804.169-.5494.4102-.7102.602-.1785.2095-.4146.4576-.5393.6653-.1424.2367-.1899.4734-.1589.6956.0329.2222.095.5374.1918.6646.0937.1266.4279.5229.5691.6007.1373.0773.1031.1089.3785.2539.3329.1753.6507.2671.8393.3.0627.0114.1393-.0171.233-.0329.0936-.0165.0949-.0747.162-.0703.1753.0108.0608.045.1443.0405.1557-.0095.3918-.1671.3311-.3-.0405-.0943.1804-.2057.3481-.2855.3013-.143.8311-.7437.8229-.8545-.0032-.0544-.2361-.1272-.2361-.1272l.062-.0943.0165-.1899s-.0804-.1722-.3001-.1431c-.0702.0095.095-.4576-.0493-.9014-.0488-.1544-.2918-.5348-.3785-.5703-.0785-.031-.1805-.0747-.2051-.1266-.0557-.1145-.0475-.1886-.2539-.3013-.1361-.0747-.2854-.1373-.3804-.1424" fill="#831f1c"></path><path d="M13.1178,35.8437c-.0259.0386,1.3293-3.9416,1.5192-4.3847.1892-.4437,1.371-3.953,1.5508-4.2093.2209-.3178,1.4856-3.4441,2.0262-4.2113.1563-.2209,2.2983-4.0726,2.5477-4.4473,0,0,1.3445,2.5807,2.0743,4.4803.4735,1.2349,1.899,5.0012,2.0882,5.4759.1899.4747,1.5122,3.1826,1.7414,3.6409.031.0627-.3001.1735-.6001.2836-.2665.0994-2.4376.8393-3.6409,1.014-.4406.0627-2.249.4589-2.5643.5052-.6336.0968-2.8186.6342-3.2294.8228-.2564.1203-3.477.9748-3.5131,1.0299" fill="#4d8975"></path><path d="M34.5044,20.5362c-.6868,2.0338-1.6553,4.272-2.1927,5.9754-.2658.8279-1.7977,5.2316-4.6512,9.3219,1.0894.081,2.2984-.3475,2.2984-.3475,1.1406-1.7755,1.9971-3.4181,2.8193-5.5177,1.899-4.5183,2.6453-8.9846,2.718-10.0005.152-2.0566-.3405-1.4648-.9918.5684" fill="#4474b8"></path><polygon points="44.5879 18.5913 44.5879 22.3817 40.8274 22.3817 40.8274 18.5913 38.8873 18.5913 38.8873 28.2298 40.8274 28.2298 40.8274 24.0154 44.5879 24.0154 44.5879 28.2298 46.5274 28.2298 46.5274 18.5913 44.5879 18.5913" fill="#6d685f"></polygon><path d="M51.2031,24.9023c-.2336.0791-.6039.1728-1.1096.281-.5064.1095-.8374.2171-.9932.3216-.238.169-.357.3854-.357.6469,0,.2576.095.4798.2855.6678.1905.1873.433.2804.7267.2804.3291,0,.6431-.1095.9418-.326.2203-.1658.3653-.369.4349-.6083.0475-.1576.0709-.4558.0709-.8969v-.3665ZM48.7433,23.3907l-1.6603-.3026c.1868-.6792.5089-1.1811.9659-1.5077.4571-.3254,1.1356-.4887,2.037-.4887.8178,0,1.4267.0981,1.8274.2924.4007.1956.683.4425.8457.7438.1627.2994.2443.8501.2443,1.6521l-.0202,2.1553c0,.614.0297,1.0659.0886,1.3577s.1703.6039.3317.9362h-1.8395c-.0481-.1209-.1063-.3006-.1753-.538-.0311-.1083-.0519-.1791-.0652-.2146-.3108.3114-.6438.545-.9982.7007-.3545.1557-.7324.2342-1.1337.2342-.709,0-1.2679-.1956-1.6755-.5868-.4083-.3892-.6128-.8836-.6128-1.4805,0-.3943.0931-.7457.2805-1.0552.1867-.3095.4481-.5469.7848-.7108.3368-.1646.8217-.3083,1.4559-.4311.8558-.1627,1.4489-.3139,1.7787-.4538v-.1874c0-.3614-.0873-.6184-.2614-.7722-.1754-.1539-.5039-.2311-.9875-.2311-.3279,0-.583.0665-.7659.1975-.1835.1317-.3323.3608-.445.6906" fill="#6d685f"></path><path d="M58.1441,28.2295v-1.0457c-.2519.3734-.5842.6703-.9944.8931-.4121.2222-.8451.3342-1.3027.3342-.4653,0-.883-.1038-1.2527-.3108-.3696-.2069-.6368-.4975-.8026-.8716-.1652-.3753-.2481-.8937-.2481-1.5546v-4.4416h1.8407v3.2282c0,.9874.0329,1.5926.1,1.8148.0671.2234.1893.3994.3665.5291.1772.1298.4019.195.6741.195.3121,0,.5906-.0874.8368-.2614.2463-.1735.4153-.39.5058-.6476s.1367-.89.1367-1.8951v-2.963h1.8395v6.997h-1.6996Z" fill="#6d685f"></path><path d="M64.2379,21.2327v1.4723h-1.2603v2.8395c0,.5761.0127.9109.0367,1.0059.0241.0949.0798.1734.1659.2354.0867.0614.1924.0931.3165.0931.1728,0,.4234-.0595.7513-.1779l.1298,1.4337c-.426.1836-.9077.2766-1.447.2766-.3304,0-.6286-.0563-.8938-.1696-.2652-.112-.4589-.257-.5836-.4361-.1234-.1792-.2095-.421-.2564-.7254-.0398-.2159-.0588-.6526-.0588-1.3103v-3.0649h-.84v-1.4723h.84v-1.3913l1.8394-1.0881v2.4794h1.2603Z" fill="#6d685f"></path><path d="M69.0545,24.1567c-.0133-.54-.1506-.9508-.4121-1.2318-.262-.2811-.5804-.4222-.9551-.4222-.4013,0-.733.1487-.9951.4456-.2614.2969-.3899.6995-.3855,1.2084h2.7478ZM68.9545,26.0113l1.8198.3026c-.2348.6836-.6064,1.2039-1.1134,1.5609-.5076.357-1.1413.5368-1.9034.5368-1.2058,0-2.0989-.3975-2.6781-1.1938-.457-.6374-.6849-1.442-.6849-2.4142,0-1.1603.3-2.0692.9013-2.7256.6001-.6571,1.3603-.9856,2.2801-.9856,1.0317,0,1.8457.3431,2.4433,1.0311.5963.6887.8811,1.7426.8558,3.1618h-4.6006c.0127.5475.1615.9741.4457,1.2773.2836.3045.6374.4571,1.0615.4571.288,0,.5304-.0792.7273-.2387.1962-.1589.3449-.4152.4456-.7697" fill="#6d685f"></path><rect x="71.6268" y="24.1274" width="2.0332" height="1.1837" fill="#6d685f"></rect><polygon points="74.2494 18.6718 74.2494 28.2299 79.6127 28.2299 79.6127 26.5961 76.1895 26.5961 76.1895 18.6718 74.2494 18.6718" fill="#6d685f"></polygon><path d="M81.4028,24.751c0,.6937.1633,1.2254.488,1.5945.326.3684.7274.5538,1.2059.5538.4766,0,.8767-.1854,1.2007-.5538.3242-.3691.4856-.9052.4856-1.6072,0-.6849-.1614-1.2115-.4856-1.5812-.324-.3684-.7241-.5532-1.2007-.5532-.4785,0-.8799.1848-1.2059.5532-.3247.3697-.488.9001-.488,1.5939M79.5223,24.6522c0-.6146.15-1.2109.4493-1.7862.3001-.5767.7248-1.0154,1.2742-1.3192.5495-.3032,1.1629-.4551,1.8401-.4551,1.047,0,1.9047.3437,2.5738,1.0318.6684.6886,1.0032,1.5571,1.0032,2.6079,0,1.0596-.338,1.9382-1.014,2.6344-.6742.6969-1.5249,1.0457-2.5497,1.0457-.6336,0-1.2387-.1456-1.8147-.4361-.5754-.2899-1.0128-.7153-1.3129-1.2755-.2993-.5608-.4493-1.2425-.4493-2.0477" fill="#6d685f"></path><path d="M87.2242,28.2292h1.8401v-6.997h-1.8401v6.997ZM87.2242,20.3055h1.8401v-1.7142h-1.8401v1.7142Z" fill="#6d685f"></path><path d="M91.586,28.2295h-1.8401v-6.997h1.6996v.9938c.2918-.4697.5532-.7761.7849-.9198.2317-.1424.4956-.2145.7912-.2145.4159,0,.8179.1158,1.2046.3475l-.5697,1.6084c-.307-.202-.5912-.3026-.8545-.3026-.2545,0-.4697.0715-.6469.2133-.1766.1431-.3165.4007-.4172.7729-.1013.3728-.1519,1.1533-.1519,2.3408v2.1572Z" fill="#6d685f"></path><path d="M98.4483,24.1567c-.0133-.54-.1513-.9508-.4127-1.2318-.2614-.2811-.5798-.4222-.9545-.4222-.402,0-.733.1487-.9944.4456-.2615.2969-.3906.6995-.3862,1.2084h2.7478ZM98.3477,26.0113l1.8204.3026c-.2348.6836-.6064,1.2039-1.114,1.5609-.5071.357-1.1413.5368-1.9034.5368-1.2058,0-2.099-.3975-2.6763-1.1938-.4576-.6374-.6861-1.442-.6861-2.4142,0-1.1603.2988-2.0692.9007-2.7256.6014-.6571,1.3616-.9856,2.28-.9856,1.0318,0,1.8458.3431,2.4433,1.0311.5957.6887.8818,1.7426.8559,3.1618h-4.6006c.0127.5475.1621.9741.4456,1.2773.2842.3045.6381.4571,1.0622.4571.2874,0,.5298-.0792.7279-.2387.1956-.1589.3437-.4152.4444-.7697" fill="#6d685f"></path><polygon points="38.892 35.8304 38.892 30.8026 39.9072 30.8026 39.9072 34.9765 42.4316 34.9765 42.4316 35.8304 38.892 35.8304" fill="#6d685f"></polygon><polygon points="43.0152 35.8304 43.0152 30.7608 46.7434 30.7608 46.7434 31.6185 44.0304 31.6185 44.0304 32.7427 46.5548 32.7427 46.5548 33.5966 44.0304 33.5966 44.0304 34.9765 46.8396 34.9765 46.8396 35.8304 43.0152 35.8304" fill="#6d685f"></polygon><path d="M49.368,30.7608h1.8559c.4184,0,.7374.0323.9564.0975.2956.0873.5482.243.7583.4665.2102.2234.3703.4975.4805.8209.1095.3241.1645.7235.1645,1.1983,0,.4178-.0519.7773-.1544,1.0792-.126.3691-.3051.6672-.5387.8957-.176.1728-.414.3076-.7134.4045-.224.0715-.5234.1069-.8988.1069h-1.9103v-5.0695ZM50.3833,31.6185v3.358h.7576c.2836,0,.4887-.0165.614-.0488.1652-.0411.3013-.1114.4102-.2108s.1975-.262.2659-.4893c.069-.2272.1031-.5361.1031-.9286,0-.3918-.0341-.6924-.1031-.9026-.0684-.2095-.1646-.3735-.288-.4906-.1235-.1177-.2805-.1974-.4704-.2386-.1411-.0323-.4196-.0487-.8336-.0487h-.4557Z" fill="#6d685f"></path><path d="M54.3041,35.8301v-5.0689h3.7283v.857h-2.7136v1.1242h2.525v.8539h-2.525v1.3799h2.8098v.8539h-3.8245ZM55.5935,30.4706l.4735-1.0336h1.0805l-.9431,1.0336h-.6109Z" fill="#6d685f"></path><path d="M58.8489,35.8303v-5.0695h1.6293c.6171,0,1.0197.0259,1.2071.0759.2886.0766.5298.2418.7241.4963.1943.2551.2912.5842.2912.9875,0,.3114-.0557.5728-.1678.7849-.112.212-.2544.3785-.4272.4994-.1729.1215-.3482.2013-.526.2411-.2425.0481-.5938.0722-1.0533.0722h-.6621v1.9122h-1.0153ZM59.8642,31.6185v1.4387h.5557c.4001,0,.6678-.0265.8027-.0797.1348-.0525.2405-.1361.3171-.2488.0766-.1126.1152-.2443.1152-.3943,0-.1842-.0538-.3361-.1614-.4564s-.2431-.195-.4083-.2247c-.1209-.0228-.3646-.0348-.7305-.0348h-.4905Z" fill="#6d685f"></path><path d="M67.4069,35.8307h-1.1039l-.4393-1.1521h-2.0103l-.4146,1.1521h-1.0774l1.9585-5.0696h1.0735l2.0135,5.0696ZM65.5377,33.8247l-.6931-1.8812-.6792,1.8812h1.3723Z" fill="#6d685f"></path><path d="M67.8088,35.8305v-5.0696h2.1369c.5374,0,.928.0456,1.1717.1367.2431.0912.438.2532.5843.4855.1462.233.2196.4995.2196.7995,0,.3798-.1108.6944-.3323.9419-.2222.2481-.5539.4044-.9951.469.2197.1285.4007.2709.5438.4254.143.1538.3355.4285.5779.8229l.614.9887h-1.2141l-.7342-1.1033c-.2608-.3937-.4387-.6425-.5349-.745-.0962-.1026-.1982-.1728-.3058-.2108-.1069-.038-.2778-.0576-.5108-.0576h-.2057v2.1167h-1.0153ZM68.8241,32.9048h.7507c.4874,0,.7912-.0202.9128-.062.1209-.0418.2165-.1133.2848-.2146.0684-.1013.1026-.2279.1026-.3804,0-.1703-.045-.3083-.1355-.4127-.0899-.1051-.2177-.1716-.3823-.1994-.0823-.0114-.3292-.0171-.7406-.0171h-.7925v1.2862Z" fill="#6d685f"></path><polygon points="73.8699 35.8304 73.8699 31.6185 72.3779 31.6185 72.3779 30.7608 76.3739 30.7608 76.3739 31.6185 74.8852 31.6185 74.8852 35.8304 73.8699 35.8304" fill="#6d685f"></polygon><polygon points="76.8884 35.8304 76.8884 30.7608 80.6173 30.7608 80.6173 31.6185 77.9037 31.6185 77.9037 32.7427 80.4281 32.7427 80.4281 33.5966 77.9037 33.5966 77.9037 34.9765 80.7129 34.9765 80.7129 35.8304 76.8884 35.8304" fill="#6d685f"></polygon><polygon points="81.4196 35.8304 81.4196 30.7608 82.9394 30.7608 83.8515 34.2188 84.7535 30.7608 86.2771 30.7608 86.2771 35.8304 85.3333 35.8304 85.3333 31.8401 84.3351 35.8304 83.3578 35.8304 82.3628 31.8401 82.3628 35.8304 81.4196 35.8304" fill="#6d685f"></polygon><polygon points="87.1445 35.8304 87.1445 30.7608 90.8734 30.7608 90.8734 31.6185 88.1598 31.6185 88.1598 32.7427 90.6841 32.7427 90.6841 33.5966 88.1598 33.5966 88.1598 34.9765 90.969 34.9765 90.969 35.8304 87.1445 35.8304" fill="#6d685f"></polygon><polygon points="91.7 35.8304 91.7 30.7608 92.6881 30.7608 94.7459 34.1467 94.7459 30.7608 95.689 30.7608 95.689 35.8304 94.6706 35.8304 92.6431 32.5243 92.6431 35.8304 91.7 35.8304" fill="#6d685f"></polygon><polygon points="97.7543 35.8304 97.7543 31.6185 96.2623 31.6185 96.2623 30.7608 100.2584 30.7608 100.2584 31.6185 98.7696 31.6185 98.7696 35.8304 97.7543 35.8304" fill="#6d685f"></polygon></g></g></g></g></svg>