<svg xmlns="http://www.w3.org/2000/svg" viewBox="0 0 113.3858 56.6924"><g><g id="Capa_1"><g><path d="M21.5378,7.0864s-2.0591,0-2.0591,1.6416v39.2364s0,1.6416,2.0591,1.6416h70.3102s2.0591,0,2.0591-1.6416V8.728s0-1.6416-2.0591-1.6416H21.5378Z" fill="#1666ae"></path><path d="M33.952,27.7469c-1.5873,0-2.5737-1.0382-2.8174-1.3327-.2306-.2946-1.7931-2.6638-1.921-2.8557-.1662.0383-.3329.0509-.5121.0509h-1.2806s.0122,3.0105.0122,3.2281c0,.3455.2824.6279.6279.6279v.1018h-2.2796v-.1018c.3455,0,.6405-.2698.6405-.6279v-7.5436c0-.1279-.1031-.627-.6405-.627v-.0901h2.9201c1.3832,0,2.5101,1.1274,2.5101,2.5228,0,.8333-.4094,1.576-1.0377,2.0364.3333.4995,2.1138,3.2655,2.2543,3.4574.1667.2046.6536.9359,1.5238,1.1535M30.2126,21.151c0-1.2166-1.0626-2.0364-2.0237-2.0364h-.768v3.9574h.909c.8328,0,1.8827-.8328,1.8827-1.921" fill="#fff"></path><path d="M37.7811,23.0722v3.7655c0,.3455.282.6275.6405.6275v.1018h-2.2792v-.1018c.3582,0,.6397-.282.6397-.6275v-7.5306c0-.3459-.2815-.6282-.6397-.6282v-.1019h2.2792v.1019c-.3585,0-.6405.2823-.6405.6282v3.1246h5.8149v-3.1246c0-.3459-.2946-.6282-.6405-.6282v-.1019h2.267v.1019c-.3464,0-.6275.2823-.6275.6282v7.5306c0,.3455.2811.6275.6275.6275v.1018h-2.267v-.1018c.3459,0,.6405-.282.6405-.6275v-3.7777l-5.8149.0122Z" fill="#fff"></path><path d="M77.1034,27.7468l-7.2604-7.3896v6.4807c0,.345.2811.6396.6266.6396v.0896h-1.8053v-.0896c.3459,0,.64-.2819.64-.6274,0-.0522-.013-8.6327-.013-8.6327l7.2629,7.531v-6.4411c0-.3459-.2828-.6283-.6278-.6283v-.1023h1.8053v.0901c-.3468,0-.6283.2807-.6283.6405v8.4395" fill="#fff"></path><path d="M86.7527,19.1145h-3.0867v3.3939h3.1128c.409,0,.5639-.3329.5639-.6401h.0892v1.8184h-.0892c0-.3585-.1679-.627-.5778-.627h-3.0989c-.0131,0,0,3.5336,0,3.957h2.9335c.8324,0,1.0365-.5248,1.0748-.6149.0391,0,.0522-.0126.0896-.0126-.0374.0766-.4351.8206-.6144,1.1779h-5.1222v-.0896c.3446,0,.6392-.2946.6392-.6397,0-.9611-.013-7.5306,0-7.5306,0-.3598-.2815-.6405-.6274-.6405v-.09h5.4433v1.1779h-.0897c0-.3455-.2811-.6401-.64-.6401" fill="#fff"></path><path d="M55.6028,16.3877c2.7202,0,4.2478,1.916,4.2478,2.0978-1.087-.3884-1.6055-.6733-2.7707-.6733-3.0051,0-5.8284,2.357-5.8284,5.8271,0,1.424.6477,2.7446.7512,2.875-.3884,0-2.046-1.7876-2.046-4.2473,0-2.6937,1.8646-5.8793,5.6461-5.8793" fill="#fff"></path><path d="M61.1455,17.1389c.388.3623,3.2378,2.4605,3.2121,6.3708,0,4.3505-3.678,7.4839-7.4334,7.4839s-6.0867-3.0038-6.372-3.3409c.8029.5959,2.2278,1.8129,5.1289,1.8129,3.1339,0,7.2003-2.4088,7.2003-7.3804,0-1.735-.8286-3.8324-1.7359-4.9463" fill="#fff"></path><polygon points="60.4833 13.9658 60.3558 14.2183 56.7494 12.7631 53.2263 14.2183 53.1 13.9864 56.7494 11.2027 60.4833 13.9658" fill="#fff"></polygon><path d="M44.1157,40.6579l-.51-.2702-.6674.8863.2983.183.8791-.7991ZM29.5356,45.4363h2.0641v-.5235h-1.5015v-1.2679h1.4581v-.5235h-1.4581v-.9103h1.5015v-.5239h-2.0641v3.7491ZM47.5324,41.6872h-.5757v3.7491h.5622v-1.5255h.2066c.8446,0,1.329-.4073,1.329-1.1164,0-.7659-.4697-1.1072-1.5221-1.1072M47.6098,43.3966h-.0909v-1.1951h.0665c.4625,0,.9355.0694.9355.5832,0,.4234-.2811.6119-.9111.6119M26.2931,41.6872h-.5622v3.7491h1.6682v-.5235h-1.106v-3.2256ZM38.1072,41.6872h-.8075v3.7491h.7932c1.3021,0,2.1109-.7255,2.1109-1.8937,0-1.1269-.8227-1.8554-2.0966-1.8554M37.9671,44.9128h-.1048v-2.7017h.1048c.7638,0,1.6745.2344,1.6745,1.3509s-.9107,1.3508-1.6745,1.3508M42.4951,45.4363h2.0637v-.5235h-1.5014v-1.2679h1.4585v-.5235h-1.4585v-.9103h1.5014v-.5239h-2.0637v3.7491ZM85.2429,41.6872v.5239h.8648v3.2252h.5618v-3.2252h.8644v-.5239h-2.291ZM75.3831,45.4363h2.0649v-.5235h-1.5023v-1.2679h1.4586v-.5235h-1.4586v-.9103h1.5023v-.5239h-2.0649v3.7491ZM82.5349,44.2955c-.1755-.1831-2.734-2.8633-2.734-2.8633v4.0041h.5634v-2.6318c.1738.1826,2.732,2.8632,2.732,2.8632v-3.9805h-.5614v2.6083ZM50.4903,45.4363h.6072s.3885-.853.4154-.9123h1.6008c.0269.0593.4153.9123.4153.9123h.6069l-1.8226-3.9793-1.823,3.9793ZM51.7494,44c.0551-.1258.4839-1.1008.5639-1.283.08.1822.5084,1.1572.5639,1.283h-1.1278ZM71.092,44.319c-.0922-.2108-1.2705-2.9133-1.2705-2.9133l-.7894,4.0306h.5803s.3543-2.0086.4035-2.288c.1158.2613,1.0761,2.4467,1.0761,2.4467,0,0,.9607-2.1845,1.0756-2.4467.0497.2798.4057,2.288.4057,2.288h.579l-.7894-4.0306s-1.1792,2.7025-1.2709,2.9133M58.3449,42.7797c0-.3821-.1931-.7331-.5045-.9157-.3106-.1768-.6868-.1768-.9886-.1768h-.6047v3.7491h.5627v-1.5398h.1056c.0316.0455,1.0718,1.5398,1.0718,1.5398h.6855s-1.0865-1.4964-1.1682-1.6088c.4962-.0997.8404-.5117.8404-1.0478M56.9002,43.4113h-.0904v-1.2098h.0665c.6379,0,.935.1902.935.5975,0,.4234-.2807.6123-.9111.6123M60.3813,42.2111h.8643v3.2252h.5627v-3.2252h.8639v-.5239h-2.2909v.5239ZM64.8672,45.4363h2.0641v-.5235h-1.5023v-1.2679h1.4586v-.5235h-1.4586v-.9103h1.5023v-.5239h-2.0641v3.7491Z" fill="#fff"></path></g></g></g></svg>