<svg xmlns="http://www.w3.org/2000/svg" viewBox="0 0 113.3858 56.6924"><g><g id="Capa_1"><g><g><path d="M14.1736,44.462v-5.7702h1.3308v4.6844h1.9878v1.0858h-3.3186Z" fill="#8cb63c"></path><path d="M19.4102,44.462v-5.7702h3.4673l-.3238,1.0771h-1.8039v1.2084h1.8126v1.0855h-1.8126v1.3221h2.1102v1.0771h-3.4498Z" fill="#8cb63c"></path><path d="M30.3475,44.462h-1.9439v-5.7702h2.0838c2.0228,0,3.2311,1.0859,3.2311,2.8371,0,1.8211-1.4184,2.9331-3.371,2.9331ZM30.3562,39.7864h-.6127v3.5898h.6389c1.3399,0,1.8915-.858,1.8915-1.8036,0-1.1208-.6744-1.7862-1.9177-1.7862Z" fill="#8cb63c"></path><path d="M35.8471,44.462v-5.7702h3.4674l-.3239,1.0771h-1.8039v1.2084h1.8126v1.0855h-1.8126v1.3221h2.1103v1.0771h-3.4499ZM37.8172,38.368h-1.007l.7181-1.2872h1.4097l-1.1208,1.2872Z" fill="#8cb63c"></path><path d="M43.2234,42.5094h-.1487v1.9526h-1.3398v-5.7702h1.6724c1.2872,0,2.1626.6393,2.1626,1.8912,0,.6919-.5516,1.9264-2.3465,1.9264ZM43.2674,39.7864h-.1927v1.7248h.1927c.6653,0,.9805-.3151.9805-.8668,0-.4641-.3239-.858-.9805-.858Z" fill="#8cb63c"></path><path d="M51.1453,44.462l-.5517-1.3747h-1.8737l-.5255,1.3747h-1.3134l2.2677-5.7964h1.051l2.3902,5.7964h-1.4446ZM49.8755,41.1085c-.0963-.2802-.1751-.5255-.21-.7091h-.0087c-.0349.1927-.1138.4376-.2101.6916l-.3503.9282h1.0946l-.3155-.9107Z" fill="#8cb63c"></path><path d="M57.5815,44.462c-.8667-1.5059-1.1731-2.0838-1.3657-2.1626h-.403v2.1626h-1.3395v-5.7702h1.8036c1.5848,0,2.1452.7795,2.1452,1.6811,0,.7356-.5165,1.2436-1.0245,1.4799v.0087c.3154.1839.8496,1.1295,1.6989,2.6005h-1.515ZM56.3121,39.7864h-.4993v1.5586h.4905c.4641,0,.8054-.3503.8054-.8231,0-.4204-.3151-.7355-.7966-.7355Z" fill="#8cb63c"></path><path d="M65.1653,39.7689h-1.5235v4.6931h-1.3573v-4.6931h-1.6898v-1.0771h4.8508l-.2802,1.0771Z" fill="#8cb63c"></path><path d="M67.3111,44.462v-5.7702h3.4673l-.3239,1.0771h-1.8036v1.2084h1.8124v1.0855h-1.8124v1.3221h2.11v1.0771h-3.4498Z" fill="#8cb63c"></path><path d="M77.6266,44.462v-2.9418c0-.2104,0-.4466.0087-.6218h-.0087c-.0527.1225-.2889.4641-.3852.6128l-.9459,1.4187h-.5866l-1.0768-1.4711c-.1228-.1664-.2627-.3416-.3852-.5604h-.0178c.0087.1926.0087.4202.0087.5778v2.9858h-1.3308v-5.7702h1.2084l1.4448,2.014c.1749.245.3151.4554.4464.6829h.0177c.1051-.2101.245-.4554.4202-.7268l1.2959-1.9701h1.217v5.7702h-1.3308Z" fill="#8cb63c"></path><path d="M81.3049,44.462v-5.7702h3.4673l-.3239,1.0771h-1.8036v1.2084h1.8124v1.0855h-1.8124v1.3221h2.11v1.0771h-3.4498Z" fill="#8cb63c"></path><path d="M91.165,44.462l-2.3991-3.0384c-.1839-.2363-.3504-.4638-.543-.7178h-.0174c.0262.1926.0262.5778.0262.8231v2.9331h-1.3309v-5.7702h1.3399l2.32,2.9157c.1839.2365.3503.4553.5168.7006h.0174c-.0174-.2977-.0174-.7181-.0174-.9456v-2.6707h1.3308v5.7702h-1.2433Z" fill="#8cb63c"></path><path d="M98.9324,39.7689h-1.5234v4.6931h-1.3573v-4.6931h-1.6899v-1.0771h4.8508l-.2802,1.0771Z" fill="#8cb63c"></path></g><path d="M21.5389,31.815c-3.2233.8806-4.7286,1.3648-5.6375,1.2078-1.8154-.3116-1.7275-1.4151-1.7275-3.0235V12.2304h5.5779v13.5782c0,1.3612.3232,2.2327,1.4867,2.2177.9438-.0117,4.9387-1.1211,6.1894-1.5216l1.3917,2.9261s-4.3831,1.5918-7.2807,2.3842Z" fill="#322b80"></path><path d="M64.7993,32.7741h5.5773v-11.8639c.394-1.6528,1.8888-2.7938,4.2299-2.7938.6967,0,1.6727.1162,2.6042.5833l3.8637-3.8907c-.524-.3164-1.8889-.5701-3.0975-.7154-5.1878.7036-9.3937,1.9821-13.1776,3.5488v15.1317Z" fill="#322b80"></path><polygon points="54.9936 21.7845 54.9936 32.7741 60.5703 32.7741 60.5703 19.1322 54.9936 21.7845" fill="#322b80"></polygon><polygon points="60.5703 13.309 54.9936 13.309 54.9936 19.1656 60.5703 16.5728 60.5703 13.309" fill="#322b80"></polygon><path d="M48.6278,30.5188c-1.9502,1.6718-4.6461,2.6445-7.9467,2.6445-3.0664,0-5.6688-.8162-7.5759-2.2942-2.1823-1.7115-3.3918-4.2374-3.3918-7.194,0-2.8759,1.1614-5.3636,3.2088-7.114,1.9514-1.6315,4.598-2.6027,7.8079-2.6027,3.3912,0,6.1329.9712,8.0849,2.643,1.905,1.7101,2.9283,4.1204,2.9283,6.9202,0,2.798-1.0696,5.2872-3.1155,6.9972ZM40.6363,17.6506c-3.5321,0-5.2517,2.4877-5.2517,5.9089,0,3.5793,1.9983,5.9863,5.3901,5.9863,3.4856,0,5.2516-2.5256,5.2516-5.9863,0-3.5383-1.9528-5.9089-5.39-5.9089Z" fill="#322b80"></path><path d="M98.9511,20.2517c-.1403-.4373-.2601-.7897-.416-1.0663-1.5345-3.2334-4.7156-5.227-9.019-5.227-6.2728,0-9.9899,4.3531-9.9899,9.6011,0,4.9369,3.2515,9.6038,10.9205,9.6038,2.6014,0,5.5312-.5842,7.9924-2.024l-1.3467-2.9914c-1.9033.8559-3.625,1.2829-5.7158,1.2829-2.1741,0-4.049-.8171-5.1472-2.1184-.387-.4442-.7386-1.013-.985-1.7485-.6197-1.8551-.4927-3.5272-.2176-4.5938.3617-1.6914,1.9568-3.5145,4.3512-3.5145,1.7735,0,2.9481.8074,3.6021,1.8984l.0214.0568s.471.8993-.7939,1.3682c-1.2668.4716-4.3729,1.1012-4.3729,1.1012l-.3001,2.4468,10.9939-2.0953s.304-.0578.4361-.3033c.0912-.1686.1749-.4286.1565-.8193-.0118-.2365-.0614-.5194-.17-.8574Z" fill="#322b80"></path></g></g></g></svg>