<svg xmlns="http://www.w3.org/2000/svg" viewBox="0 0 113.3858 56.6924"><g><g id="Capa_1"><g><polygon points="34.9097 21.3727 36.357 21.3727 36.357 26.6261 38.9571 26.6261 38.9571 27.7608 34.9097 27.7608 34.9097 21.3727" fill="#319ada"></polygon><g><path d="M39.6745,26.4651c0-1.0898,1.0007-1.5009,2.4303-1.5009h.527v-.1876c0-.5538-.1699-.8576-.7595-.8576-.5093,0-.7414.2589-.795.661h-1.2242c.0804-1.1076.9561-1.5991,2.0996-1.5991s1.9568.4647,1.9568,1.7331v3.0466h-1.26v-.5628c-.268.3752-.6791.6613-1.4114.6613-.849,0-1.5636-.4111-1.5636-1.394M42.6318,26.1257v-.393h-.5002c-.7508,0-1.1884.1609-1.1884.661,0,.3394.2054.5629.6788.5629.5719,0,1.0098-.3126,1.0098-.8309" fill="#319ada"></path><path d="M46.9561,21.3726h2.2871c1.5099,0,2.4658.6165,2.4658,1.9388v.0358c0,.9649-.5629,1.4741-1.3133,1.6976l1.6885,2.716h-1.5367l-1.5277-2.4658h-.6255v2.4658h-1.4382v-6.3882ZM49.2074,24.3121c.7236,0,1.0898-.3039,1.0898-.9203v-.0358c0-.652-.393-.8755-1.0898-.8755h-.8131v1.8316h.8131Z" fill="#319ada"></path><path d="M52.5302,25.4825v-.0713c0-1.4744,1.0453-2.4303,2.4034-2.4303,1.2061,0,2.2782.7056,2.2782,2.3767v.3571h-3.3683c.0358.7773.4556,1.2242,1.1615,1.2242.5987,0,.8935-.2593.9739-.6523h1.2238c-.1517,1.0097-.9558,1.5725-2.2335,1.5725-1.4115,0-2.439-.8847-2.439-2.3766M55.9521,24.9197c-.0446-.7059-.402-1.0453-1.0185-1.0453-.5809,0-.9739.384-1.0723,1.0453h2.0908ZM54.8978,21.0332h1.3578l-.929,1.4204h-.938l.5092-1.4204Z" fill="#319ada"></path><path d="M57.9952,27.859h1.2868c.0801.411.3752.6791,1.0362.6791.7863,0,1.1793-.4111,1.1793-1.1438v-.7055c-.259.4556-.8131.8663-1.5009.8663-1.1347,0-2.0369-.8486-2.0369-2.2335v-.0624c0-1.3403.8932-2.2784,2.0547-2.2784.7594,0,1.2151.3307,1.4831.804v-.6968h1.2865v4.3063c-.0088,1.385-.9291,2.0909-2.4658,2.0909-1.5099,0-2.1977-.6614-2.323-1.6262M61.5333,25.3038v-.0626c0-.795-.4201-1.2775-1.1256-1.2775-.7237,0-1.1257.518-1.1257,1.2865v.0714c0,.7772.4556,1.2596,1.0989,1.2596.6787,0,1.1524-.4824,1.1524-1.2774" fill="#319ada"></path><path d="M63.9581,21.7479c0-.402.3216-.7058.7327-.7058.4198,0,.7414.3038.7414.7058s-.3216.7059-.7414.7059c-.4111,0-.7327-.3038-.7327-.7059M64.0563,23.088h1.2865v4.6725h-1.2865v-4.6725Z" fill="#319ada"></path><path d="M66.3239,25.4734v-.0713c0-1.4654,1.063-2.4212,2.4658-2.4212s2.457.938,2.457,2.3944v.0713c0,1.4744-1.0631,2.4125-2.4658,2.4125-1.394,0-2.457-.9293-2.457-2.3857M69.9334,25.4557v-.0627c0-.8935-.4198-1.4295-1.1437-1.4295-.7146,0-1.1435.5183-1.1435,1.4118v.0713c0,.8935.4111,1.4295,1.1435,1.4295.7239,0,1.1437-.536,1.1437-1.4204" fill="#319ada"></path><path d="M72.2314,23.0881h1.2955v.7414c.2322-.4644.7414-.8486,1.519-.8486.9199,0,1.5722.5537,1.5722,1.8047v2.975h-1.2955v-2.7874c0-.6345-.2499-.9381-.8218-.9381-.5541,0-.9739.3394-.9739,1.0276v2.6979h-1.2955v-4.6725Z" fill="#319ada"></path><path d="M36.167,30.7719h.7217l1.5321,4.5264h-.5445l-.4431-1.304h-1.8677l-.4366,1.304h-.5192l1.5573-4.5264ZM35.7176,33.5574h1.57l-.785-2.3296-.785,2.3296Z" fill="#319ada"></path><path d="M38.8227,34.0829v-2.0955h.5255v2.0702c0,.5825.2468.8418.766.8418.4684,0,.9115-.3101.9115-.905v-2.007h.5255v3.3109h-.5255v-.5254c-.1517.3104-.5192.5824-1.0508.5824-.6585,0-1.1522-.3609-1.1522-1.2724" fill="#319ada"></path><polygon points="42.0431 31.9874 42.6128 31.9874 43.5942 34.7667 44.5628 31.9874 45.1072 31.9874 43.917 35.2983 43.2461 35.2983 42.0431 31.9874" fill="#319ada"></polygon><path d="M45.2616,33.6778v-.0508c0-1.0004.6395-1.6966,1.551-1.6966.7661,0,1.4878.4622,1.4878,1.6461v.1708h-2.4944c.0253.7533.3861,1.1712,1.0637,1.1712.5126,0,.8102-.1898.8797-.5759h.5255c-.1138.6644-.6648,1.0128-1.4118,1.0128-.9368,0-1.6015-.6585-1.6015-1.6776M47.7622,33.3232c-.0508-.6838-.4051-.9559-.9496-.9559-.5382,0-.8991.3672-.9876.9559h1.9372Z" fill="#319ada"></path><path d="M48.9492,31.9874h.5254v.5949c.2088-.3733.494-.6329,1.0889-.6519v.4939c-.6647.0315-1.0889.2406-1.0889,1.0571v1.8169h-.5254v-3.3109Z" fill="#319ada"></path><path d="M50.8602,35.4881h.5382c.0761.3799.3924.5763.9559.5763.6522,0,1.0636-.3101,1.0636-1.0191v-.4812c-.1898.3229-.6395.6267-1.1204.6267-.8676,0-1.5068-.6585-1.5068-1.57v-.0443c0-.8991.633-1.6461,1.5446-1.6461.5509,0,.8928.2658,1.0826.5887v-.5317h.5254v3.0894c-.0062.9623-.6585,1.4307-1.5825,1.4307-.9814,0-1.4117-.4621-1.5006-1.0194M53.4369,33.5827v-.0442c0-.7408-.4051-1.1712-1.0508-1.1712-.6586,0-1.0509.4874-1.0509,1.1837v.0507c0,.7218.4622,1.1522,1.0191,1.1522.6142,0,1.0826-.4304,1.0826-1.1712" fill="#319ada"></path><path d="M54.7873,31.9874h.5254v.5254c.1521-.3101.5192-.5824,1.0636-.5824.6838,0,1.1647.3736,1.1647,1.3357v2.0322h-.5255v-2.0699c0-.5825-.2468-.8421-.7785-.8421-.4874,0-.9243.3101-.9243.9053v2.0067h-.5254v-3.3109Z" fill="#319ada"></path><path d="M58.1589,33.6778v-.0508c0-1.0004.6395-1.6966,1.551-1.6966.7661,0,1.4878.4622,1.4878,1.6461v.1708h-2.4944c.0253.7533.3862,1.1712,1.0637,1.1712.5126,0,.8103-.1898.8798-.5759h.5254c-.1138.6644-.6648,1.0128-1.4118,1.0128-.9368,0-1.6015-.6585-1.6015-1.6776M60.6595,33.3232c-.0508-.6838-.4051-.9559-.9496-.9559-.5382,0-.8991.3672-.9876.9559h1.9372Z" fill="#319ada"></path><rect x="61.8286" y="33.3106" width="1.3548" height=".4937" fill="#319ada"></rect><path d="M64.0845,30.7719h1.3609c.8673,0,1.5826.3547,1.5826,1.2597v.0256c0,.747-.4999,1.1141-1.1204,1.2344l1.3865,2.0067h-.6143l-1.3484-1.9687h-.6963v1.9687h-.5506v-4.5264ZM65.4834,32.8927c.6458,0,.9939-.2786.9939-.8355v-.0256c0-.6139-.3799-.8165-.9939-.8165h-.8483v1.6776h.8483Z" fill="#319ada"></path><path d="M67.8321,30.4047h.5254v2.108c.1521-.3101.5192-.5822,1.0636-.5822.6838,0,1.1647.3734,1.1647,1.3357v2.0323h-.5255v-2.0703c0-.5825-.2468-.8421-.7785-.8421-.4874,0-.9243.3104-.9243.9054v2.007h-.5254v-4.8938Z" fill="#319ada"></path><path d="M71.1917,33.6714v-.0508c0-.9938.69-1.6901,1.6271-1.6901s1.6268.69,1.6268,1.6839v.0508c0,1-.69,1.69-1.6334,1.69s-1.6205-.7152-1.6205-1.6838M73.9011,33.6714v-.0443c0-.766-.4241-1.2599-1.0823-1.2599-.6648,0-1.0827.4939-1.0827,1.2534v.0508c0,.7532.4114,1.2472,1.0827,1.2472.6647,0,1.0823-.5002,1.0823-1.2472M72.5844,30.506h.475l.6772.9116h-.3862l-.5382-.4747-.5379.4747h-.3736l.6837-.9116Z" fill="#319ada"></path><path d="M75.0894,31.9874h.5255v.5254c.152-.3101.5192-.5824,1.0636-.5824.6838,0,1.1646.3736,1.1646,1.3357v2.0322h-.5254v-2.0699c0-.5825-.2468-.8421-.7785-.8421-.4874,0-.9243.3101-.9243.9053v2.0067h-.5255v-3.3109Z" fill="#319ada"></path><path d="M78.4611,33.6778v-.0508c0-1.0004.6395-1.6966,1.551-1.6966.766,0,1.4878.4622,1.4878,1.6461v.1708h-2.4944c.0252.7533.3861,1.1712,1.0636,1.1712.5127,0,.8103-.1898.8798-.5759h.5255c-.1138.6644-.6648,1.0128-1.4118,1.0128-.9368,0-1.6015-.6585-1.6015-1.6776M80.9617,33.3232c-.0508-.6838-.4051-.9559-.9496-.9559-.5382,0-.8991.3672-.9876.9559h1.9372Z" fill="#319ada"></path><rect x="82.1308" y="33.3106" width="1.3547" height=".4937" fill="#319ada"></rect><path d="M85.455,30.7719h.7218l1.5321,4.5264h-.5445l-.4431-1.304h-1.8677l-.4366,1.304h-.5193l1.5573-4.5264ZM85.0057,33.5574h1.57l-.785-2.3296-.785,2.3296Z" fill="#319ada"></path><rect x="88.2665" y="30.4045" width=".5317" height="4.8938" fill="#319ada"></rect><path d="M89.641,31.9875h.5254v.557c.1898-.3229.6392-.614,1.1204-.614.8673,0,1.5068.633,1.5068,1.6648v.0508c0,1.0129-.5953,1.7091-1.5068,1.7091-.5445,0-.9306-.2721-1.1204-.6012v1.6966h-.5254v-4.4631ZM92.2492,33.6714v-.0508c0-.8356-.4622-1.2535-1.0195-1.2535-.6139,0-1.0823.4052-1.0823,1.2535v.0508c0,.8483.4432,1.2472,1.0889,1.2472.6582,0,1.0129-.4432,1.0129-1.2472" fill="#319ada"></path><path d="M93.2348,33.6778v-.0508c0-1.0004.6395-1.6966,1.551-1.6966.7661,0,1.4879.4622,1.4879,1.6461v.1708h-2.4945c.0253.7533.3862,1.1712,1.0637,1.1712.5126,0,.8103-.1898.8798-.5759h.5254c-.1138.6644-.6644,1.0128-1.4118,1.0128-.9368,0-1.6015-.6585-1.6015-1.6776M95.7354,33.3232c-.0508-.6838-.4051-.9559-.9496-.9559-.5382,0-.899.3672-.9875.9559h1.9371Z" fill="#319ada"></path><path d="M96.6799,34.2791h.5127c.038.3924.2471.6395.7788.6395.5002,0,.7218-.1711.7218-.5254,0-.3484-.2596-.4622-.7726-.5573-.8608-.1583-1.1522-.3989-1.1522-.9748,0-.6142.6015-.9305,1.1207-.9305.5949,0,1.1079.2405,1.1964.9558h-.5064c-.076-.3609-.2786-.5192-.6965-.5192-.3796,0-.6267.1901-.6267.4749,0,.2976.1648.4176.7725.5254.6838.1266,1.165.2787,1.165.9811,0,.6015-.4117,1.0066-1.2158,1.0066-.7912,0-1.2659-.3986-1.2977-1.0761" fill="#319ada"></path><path d="M30.6705,28.3366c0,4.5556-3.693,8.2486-8.2486,8.2486s-8.2487-3.693-8.2487-8.2486,3.693-8.2487,8.2487-8.2487,8.2486,3.693,8.2486,8.2487" fill="#319ada"></path><polygon points="23.6956 23.5644 22.9074 23.5644 21.0463 26.7594 21.8329 27.2176 23.3004 24.6979 26.2851 29.8148 27.0726 29.3586 23.6956 23.5644" fill="#fff"></polygon><rect x="19.2319" y="30.753" width="8.3194" height=".9103" fill="#fff"></rect><path d="M23.572,27.4406c-.4688.5575-1.1715.9119-1.9569.9119-.733,0-1.3936-.3089-1.8599-.8032h-.8109l-.0333.0574-2.1014,3.597.7859.4594,1.5262-2.6126-.0041-.0009.3244-.5566c.5943.4796,1.3498.7673,2.1731.7673,1.0521,0,1.9949-.4694,2.63-1.2101l-.6731-.6096Z" fill="#fff"></path><polygon points="34.9289 21.3919 36.3762 21.3919 36.3762 26.6453 38.9763 26.6453 38.9763 27.78 34.9289 27.78 34.9289 21.3919" fill="#319ada"></polygon><path d="M39.6938,26.4843c0-1.0898,1.0007-1.5008,2.4302-1.5008h.527v-.1877c0-.5537-.1699-.8576-.7595-.8576-.5092,0-.7414.259-.795.661h-1.2242c.0804-1.1076.9562-1.5991,2.0996-1.5991s1.9565.4647,1.9565,1.7331v3.0467h-1.2597v-.5629c-.268.3752-.679.6613-1.4114.6613-.8489,0-1.5635-.411-1.5635-1.394M42.651,26.145v-.393h-.5002c-.7508,0-1.1883.1608-1.1883.661,0,.3394.2054.5628.6787.5628.5719,0,1.0098-.3126,1.0098-.8308" fill="#319ada"></path><path d="M46.9753,21.3918h2.2872c1.5099,0,2.4657.6165,2.4657,1.9388v.0358c0,.9649-.5628,1.4741-1.3133,1.6976l1.6885,2.7159h-1.5367l-1.5277-2.4657h-.6255v2.4657h-1.4382v-6.3881ZM49.2266,24.3313c.7237,0,1.0902-.3039,1.0902-.9203v-.0359c0-.6519-.3933-.8754-1.0902-.8754h-.8131v1.8316h.8131Z" fill="#319ada"></path><path d="M52.5494,25.5018v-.0714c0-1.4744,1.0453-2.4302,2.4035-2.4302,1.206,0,2.2781.7055,2.2781,2.3766v.3571h-3.3683c.0359.7773.4556,1.2242,1.1615,1.2242.5987,0,.8935-.2593.9739-.6523h1.2239c-.1518,1.0094-.9559,1.5726-2.2336,1.5726-1.4115,0-2.439-.8848-2.439-2.3766M55.9713,24.9389c-.0445-.7058-.402-1.0452-1.0184-1.0452-.5809,0-.9739.3839-1.0724,1.0452h2.0908ZM54.917,21.0524h1.3579l-.9291,1.4205h-.938l.5092-1.4205Z" fill="#319ada"></path><path d="M58.0144,27.8782h1.2868c.0804.411.3752.6791,1.0362.6791.7863,0,1.1793-.4111,1.1793-1.1438v-.7059c-.259.456-.8131.8667-1.5009.8667-1.1347,0-2.0369-.8486-2.0369-2.2335v-.0624c0-1.3403.8932-2.2784,2.0547-2.2784.7595,0,1.2151.3307,1.4831.804v-.6968h1.2868v4.3063c-.009,1.385-.9293,2.0909-2.4661,2.0909-1.5099,0-2.1977-.6614-2.323-1.6262M61.5526,25.323v-.0626c0-.795-.4198-1.2775-1.1257-1.2775-.7237,0-1.1257.518-1.1257,1.2865v.0714c0,.7772.4557,1.2596,1.0989,1.2596.6788,0,1.1525-.4824,1.1525-1.2774" fill="#319ada"></path><path d="M63.9774,21.767c0-.4021.3217-.7056.7324-.7056.4201,0,.7417.3035.7417.7056s-.3216.7058-.7417.7058c-.4107,0-.7324-.3035-.7324-.7058M64.0756,23.1073h1.2865v4.6726h-1.2865v-4.6726Z" fill="#319ada"></path><path d="M66.3431,25.4927v-.0714c0-1.4654,1.063-2.4212,2.4658-2.4212s2.457.9381,2.457,2.3944v.0714c0,1.4744-1.0631,2.4124-2.4658,2.4124-1.394,0-2.457-.9293-2.457-2.3856M69.9526,25.4749v-.0626c0-.8935-.4201-1.4296-1.1437-1.4296-.7147,0-1.1435.5183-1.1435,1.4118v.0714c0,.8934.4111,1.4295,1.1435,1.4295.7236,0,1.1437-.5361,1.1437-1.4205" fill="#319ada"></path><path d="M72.2506,23.1073h1.2955v.7417c.2322-.4647.7414-.8489,1.519-.8489.92,0,1.5722.5538,1.5722,1.8047v2.975h-1.2955v-2.7874c0-.6342-.2499-.938-.8218-.938-.5541,0-.9739.3394-.9739,1.0275v2.6979h-1.2955v-4.6725Z" fill="#319ada"></path><path d="M36.1862,30.7911h.7218l1.532,4.5264h-.5444l-.4432-1.3039h-1.8674l-.4369,1.3039h-.5192l1.5573-4.5264ZM35.7368,33.5766h1.5701l-.7851-2.3295-.785,2.3295Z" fill="#319ada"></path><path d="M38.842,34.1021v-2.0955h.5254v2.0702c0,.5825.2468.8418.766.8418.4684,0,.9116-.3101.9116-.905v-2.007h.5254v3.3109h-.5254v-.5255c-.1518.3104-.5192.5825-1.0509.5825-.6585,0-1.1521-.3609-1.1521-1.2724" fill="#319ada"></path><polygon points="42.0623 32.0066 42.632 32.0066 43.6134 34.7859 44.582 32.0066 45.1264 32.0066 43.9362 35.3176 43.2653 35.3176 42.0623 32.0066" fill="#319ada"></polygon><path d="M45.2808,33.697v-.0508c0-1,.6395-1.6966,1.5511-1.6966.766,0,1.4878.4622,1.4878,1.6461v.1708h-2.4945c.0253.7533.3862,1.1712,1.0637,1.1712.5127,0,.8103-.1898.8798-.5759h.5254c-.1137.6644-.6647,1.0128-1.4118,1.0128-.9368,0-1.6015-.6585-1.6015-1.6776M47.7815,33.3424c-.0509-.6838-.4052-.9558-.9496-.9558-.5382,0-.8991.3671-.9876.9558h1.9372Z" fill="#319ada"></path><path d="M48.9684,32.0066h.5254v.595c.2088-.3734.494-.633,1.0889-.652v.4939c-.6647.0315-1.0889.2406-1.0889,1.0572v1.8169h-.5254v-3.311Z" fill="#319ada"></path><path d="M50.8795,35.5073h.5382c.076.3799.3923.5763.9558.5763.6523,0,1.0636-.3101,1.0636-1.0191v-.4812c-.1898.3229-.6395.6267-1.1203.6267-.8677,0-1.5068-.6585-1.5068-1.57v-.0443c0-.8991.6329-1.6461,1.5445-1.6461.551,0,.8928.2658,1.0826.5887v-.5317h.5255v3.0894c-.0063.9623-.6585,1.4307-1.5826,1.4307-.9813,0-1.4117-.4621-1.5005-1.0194M53.4561,33.6019v-.0442c0-.7408-.4051-1.1712-1.0508-1.1712-.6585,0-1.0509.4874-1.0509,1.1836v.0508c0,.7218.4622,1.1522,1.0191,1.1522.6142,0,1.0826-.4304,1.0826-1.1712" fill="#319ada"></path><path d="M54.8065,32.0066h.5254v.5255c.1521-.3101.5192-.5825,1.0637-.5825.6837,0,1.1646.3737,1.1646,1.3357v2.0323h-.5255v-2.07c0-.5825-.2468-.8421-.7784-.8421-.4875,0-.9244.3101-.9244.9054v2.0067h-.5254v-3.311Z" fill="#319ada"></path><path d="M58.1781,33.697v-.0508c0-1,.6395-1.6966,1.5511-1.6966.766,0,1.4878.4622,1.4878,1.6461v.1708h-2.4944c.0252.7533.3861,1.1712,1.0636,1.1712.5127,0,.8103-.1898.8798-.5759h.5254c-.1137.6644-.6647,1.0128-1.4117,1.0128-.9368,0-1.6016-.6585-1.6016-1.6776M60.6788,33.3424c-.0508-.6838-.4052-.9558-.9496-.9558-.5382,0-.8991.3671-.9876.9558h1.9372Z" fill="#319ada"></path><rect x="61.848" y="33.3296" width="1.3547" height=".4937" fill="#319ada"></rect><path d="M64.1037,30.7911h1.3609c.8673,0,1.5826.3547,1.5826,1.2597v.0256c0,.747-.4999,1.1141-1.1204,1.2344l1.3865,2.0067h-.6143l-1.3481-1.9687h-.6966v1.9687h-.5506v-4.5264ZM65.5026,32.9119c.6458,0,.9939-.2786.9939-.8355v-.0256c0-.6139-.3799-.8165-.9939-.8165h-.8483v1.6776h.8483Z" fill="#319ada"></path><path d="M67.8513,30.4239h.5254v2.108c.1521-.3101.5192-.5822,1.0637-.5822.6837,0,1.1646.3734,1.1646,1.3358v2.0322h-.5254v-2.0703c0-.5824-.2469-.842-.7785-.842-.4874,0-.9244.3104-.9244.9053v2.007h-.5254v-4.8938Z" fill="#319ada"></path><path d="M71.2109,33.6906v-.0508c0-.9938.69-1.6901,1.6271-1.6901s1.6268.69,1.6268,1.6839v.0508c0,1-.69,1.69-1.6333,1.69s-1.6206-.7152-1.6206-1.6838M73.9203,33.6906v-.0443c0-.766-.4241-1.2599-1.0823-1.2599-.6647,0-1.0827.4939-1.0827,1.2534v.0508c0,.7532.4114,1.2472,1.0827,1.2472.6647,0,1.0823-.5002,1.0823-1.2472M72.6036,30.5252h.475l.6772.9116h-.3861l-.5382-.4747-.5379.4747h-.3737l.6837-.9116Z" fill="#319ada"></path><path d="M75.1086,32.0066h.5255v.5255c.152-.3101.5192-.5825,1.0636-.5825.6838,0,1.1646.3737,1.1646,1.3357v2.0323h-.5254v-2.07c0-.5825-.2468-.8421-.7785-.8421-.4874,0-.9243.3101-.9243.9054v2.0067h-.5255v-3.311Z" fill="#319ada"></path><path d="M78.4803,33.697v-.0508c0-1,.6395-1.6966,1.551-1.6966.766,0,1.4878.4622,1.4878,1.6461v.1708h-2.4944c.0252.7533.3861,1.1712,1.0637,1.1712.5126,0,.8102-.1898.8797-.5759h.5255c-.1138.6644-.6648,1.0128-1.4118,1.0128-.9368,0-1.6015-.6585-1.6015-1.6776M80.9809,33.3424c-.0508-.6838-.4051-.9558-.9496-.9558-.5382,0-.8991.3671-.9876.9558h1.9372Z" fill="#319ada"></path><rect x="82.1501" y="33.3296" width="1.3548" height=".4937" fill="#319ada"></rect><path d="M85.4743,30.7911h.7218l1.532,4.5264h-.5445l-.4431-1.3039h-1.8677l-.4366,1.3039h-.5192l1.5573-4.5264ZM85.0249,33.5766h1.5701l-.7851-2.3295-.785,2.3295Z" fill="#319ada"></path><rect x="88.2858" y="30.4239" width=".5317" height="4.8937" fill="#319ada"></rect><path d="M89.6602,32.0067h.5254v.5569c.1898-.3228.6392-.6139,1.1204-.6139.8673,0,1.5068.633,1.5068,1.6648v.0508c0,1.0129-.5952,1.7091-1.5068,1.7091-.5444,0-.9306-.2721-1.1204-.6012v1.6966h-.5254v-4.4631ZM92.2684,33.6906v-.0508c0-.8356-.4622-1.2535-1.0194-1.2535-.614,0-1.0824.4052-1.0824,1.2535v.0508c0,.8483.4432,1.2472,1.0889,1.2472.6582,0,1.0129-.4432,1.0129-1.2472" fill="#319ada"></path><path d="M93.254,33.697v-.0508c0-1,.6395-1.6966,1.5511-1.6966.766,0,1.4878.4622,1.4878,1.6461v.1708h-2.4944c.0252.7533.3861,1.1712,1.0636,1.1712.5127,0,.8103-.1898.8798-.5759h.5254c-.1137.6644-.6644,1.0128-1.4117,1.0128-.9368,0-1.6016-.6585-1.6016-1.6776M95.7547,33.3424c-.0508-.6838-.4052-.9558-.9496-.9558-.5382,0-.8991.3671-.9876.9558h1.9372Z" fill="#319ada"></path><path d="M96.6992,34.2983h.5126c.038.3924.2472.6395.7788.6395.5002,0,.7218-.1711.7218-.5254,0-.3485-.2596-.4622-.7726-.5573-.8607-.1583-1.1521-.3989-1.1521-.9748,0-.6142.6015-.9306,1.1206-.9306.595,0,1.108.2406,1.1965.9559h-.5065c-.076-.3609-.2786-.5192-.6965-.5192-.3796,0-.6267.1901-.6267.4749,0,.2976.1648.4176.7726.5254.6837.1266,1.1649.2787,1.1649.9811,0,.6015-.4117,1.0066-1.2157,1.0066-.7913,0-1.2659-.3986-1.2977-1.0761" fill="#319ada"></path><path d="M30.6897,28.3558c0,4.5557-3.693,8.2487-8.2486,8.2487s-8.2487-3.693-8.2487-8.2487,3.693-8.2486,8.2487-8.2486,8.2486,3.693,8.2486,8.2486" fill="#319ada"></path><polygon points="23.7148 23.5836 22.9267 23.5836 21.0655 26.7786 21.8521 27.2368 23.3196 24.7171 26.3043 29.834 27.0918 29.3778 23.7148 23.5836" fill="#fff"></polygon><rect x="19.2513" y="30.772" width="8.3194" height=".9103" fill="#fff"></rect><path d="M23.5912,27.4598c-.4688.5575-1.1715.9119-1.9569.9119-.733,0-1.3937-.3089-1.8599-.8031h-.8109l-.0333.0573-2.1015,3.597.786.4594,1.5261-2.6125-.004-.001.3244-.5566c.5943.4796,1.3501.7673,2.1731.7673,1.0521,0,1.9949-.4693,2.63-1.2101l-.6731-.6096Z" fill="#fff"></path></g></g></g></g></svg>